<svg width="277" height="38" viewBox="0 0 277 38" fill="none" xmlns="http://www.w3.org/2000/svg">
<path d="M206.84 37.8101C210.24 25.6401 213.65 13.4801 217.05 1.31012C217.2 0.77012 217.32 0.370117 218.06 0.370117C223.07 0.400117 228.09 0.390118 233.1 0.390118C233.29 0.390118 233.47 0.44012 233.78 0.49012C233.09 2.99012 232.43 5.42012 231.72 8.00012C232.18 8.02012 232.55 8.06012 232.93 8.06012C238.51 8.06012 244.09 8.19011 249.66 8.02011C253.23 7.91011 254.58 9.91012 253.7 13.4801C252.16 19.6901 250.32 25.8301 248.61 31.9901C248.52 32.3001 248.45 32.6201 248.32 33.1301H249.53C258.06 33.1301 266.6 33.1301 275.13 33.1301C275.56 33.1301 275.98 33.2001 276.41 33.2401V37.8001H230.56C230.61 37.5101 230.64 37.2101 230.72 36.9301C232.17 31.6801 233.62 26.4401 235.07 21.2001C235.57 19.4101 236.05 17.6101 236.58 15.6901C234.55 15.6901 232.7 15.7701 230.85 15.6601C229.74 15.5901 229.4 16.0301 229.13 17.0101C227.25 23.9501 225.31 30.8701 223.39 37.8001H206.84V37.8101Z" fill="#FF1809"/>
<path d="M74.67 37.81C74.67 37.81 74.63 37.7401 74.61 37.7301C71.55 36.7501 70.82 35.38 71.7 32.2C73.46 25.84 75.23 19.4801 77.01 13.1201C77.92 9.86005 80.29 8.07005 83.75 8.06005C89.46 8.04005 95.18 8.04005 100.89 8.07005C101.73 8.07005 102.1 7.87005 102.31 7.01005C102.79 5.02005 103.39 3.07005 104.01 1.11005C104.11 0.810049 104.55 0.410048 104.83 0.410048C109.94 0.370048 115.06 0.380048 120.18 0.390048C120.3 0.390048 120.43 0.44005 120.65 0.49005C119.9 3.19005 119.17 5.86005 118.43 8.52005C115.77 18.09 113.1 27.6601 110.43 37.2301C110.38 37.4201 110.39 37.61 110.37 37.81H74.69H74.67ZM88.83 30.04C91.15 30.04 93.27 30.07 95.39 30.01C95.63 30.01 95.99 29.56 96.08 29.25C96.9 26.43 97.67 23.6 98.46 20.77C98.92 19.13 99.37 17.49 99.87 15.7C97.74 15.7 95.75 15.7301 93.77 15.6901C93.05 15.6701 92.73 15.88 92.54 16.6C91.86 19.22 91.11 21.82 90.38 24.42C89.88 26.22 89.38 28.03 88.83 30.04Z" fill="#FF1809"/>
<path d="M29.62 37.81C29.62 37.81 29.57 37.7601 29.54 37.7501C26.65 36.8501 25.75 35.1201 26.59 32.1C28.29 25.9601 30 19.8301 31.7 13.6901C31.79 13.3801 31.86 13.06 31.97 12.63H0.280029V8.15005H49.81C47.78 15.4301 45.76 22.66 43.69 30.06H48.48C50 30.06 50.9667 29.3167 51.38 27.8301C53.13 21.5701 54.89 15.3101 56.61 9.04005C56.81 8.33005 57.09 8.04005 57.88 8.05005C62.99 8.09005 68.11 8.07005 73.37 8.07005C73.1 9.09005 72.87 10.0301 72.61 10.9601C70.75 17.6301 68.9 24.3101 67 30.9801C65.91 34.8201 63.64 37.3801 59.36 37.6401C59.21 37.6401 59.07 37.7601 58.92 37.8201H29.62V37.81Z" fill="#FF1809"/>
<path d="M121.12 37.8102C120.97 37.7402 120.83 37.6502 120.67 37.6202C118.26 37.0902 117.18 35.7802 117.68 33.3602C118.3 30.3902 119.06 27.4302 120.07 24.5902C121.15 21.5702 123.73 20.4602 126.79 20.4502C132.44 20.4202 138.08 20.4302 143.72 20.4502C144.49 20.4502 144.85 20.2302 145.03 19.4802C145.32 18.2402 145.7 17.0102 146.09 15.6002H140.83C139.09 15.6002 139.08 15.6002 138.57 17.2402C138.42 17.7402 138.22 18.0002 137.63 18.0002C132.62 17.9802 127.6 17.9902 122.59 17.9802C122.4 17.9802 122.2 17.9302 121.92 17.9002C122.7 15.0702 123.45 12.2702 124.24 9.48018C124.73 7.75018 124.33 8.03017 126.21 8.03017C137.1 8.02017 147.99 8.03017 158.88 8.03017C162.71 8.03017 164.2 9.95017 163.17 13.7202C161.51 19.8002 159.78 25.8602 158.08 31.9202C157.53 33.8902 156.96 35.8502 156.4 37.8202H121.12V37.8102ZM135.05 30.0402C137.36 30.0402 139.44 30.0502 141.52 30.0202C141.74 30.0202 142.1 29.7802 142.16 29.5802C142.55 28.3302 142.88 27.0702 143.26 25.6902C141 25.6902 138.88 25.6902 136.76 25.7102C136.56 25.7102 136.24 25.9102 136.18 26.0902C135.79 27.3402 135.45 28.6002 135.04 30.0502" fill="#FF1809"/>
<path d="M164.97 37.8102C164.92 37.7702 164.86 37.7002 164.81 37.7002C162.13 37.5802 161.02 34.9302 161.77 32.4002C163.64 26.0402 165.39 19.6402 167.18 13.2502C168.14 9.81017 170.39 8.08017 174 8.07017C180.24 8.05017 186.49 8.07017 192.73 8.07017H208.64C207.96 10.5202 207.3 12.8302 206.69 15.1602C206.52 15.8302 206.05 15.7102 205.6 15.7102C199.36 15.7102 193.11 15.7102 186.87 15.7102C185.81 15.7102 184.74 15.6702 183.68 15.7402C183.38 15.7602 182.91 16.0302 182.83 16.2802C181.55 20.7202 180.33 25.1702 179.1 29.6302C179.08 29.7102 179.12 29.8202 179.16 30.0502H202.53C201.81 32.7502 201.13 35.2902 200.45 37.8302H164.97V37.8102Z" fill="#FF1809"/>
</svg>
