<svg width="1920" height="263" viewBox="0 0 1920 263" fill="none" xmlns="http://www.w3.org/2000/svg">
<g opacity="0.6">
<path d="M1514.14 2.58997H1514.22C1534.31 2.71997 1554.4 2.73999 1573.12 2.73999H1587.51H1601.89C1607.53 2.73999 1613.17 2.73999 1618.81 2.73999C1619.52 2.73999 1620.27 2.87996 1621.31 3.07996C1621.42 3.09996 1621.53 3.12001 1621.65 3.14001C1617.33 18.91 1613.09 34.35 1608.65 50.51L1607.76 53.74L1607.27 55.54L1609.13 55.63C1610.15 55.68 1611.1 55.74 1612.02 55.8C1613.96 55.92 1615.79 56.03 1617.61 56.03C1628.87 56.03 1640.33 56.1199 1651.4 56.2C1663.02 56.28 1675.04 56.37 1686.85 56.37C1705.08 56.37 1720.07 56.17 1734 55.73C1734.64 55.71 1735.28 55.7 1735.89 55.7C1746.26 55.7 1753.69 58.4699 1757.97 63.9399C1762.75 70.0499 1763.63 79.44 1760.56 91.83C1753.07 122.13 1744.38 152.68 1735.97 182.23C1732.4 194.77 1728.72 207.74 1725.17 220.51C1724.78 221.93 1724.43 223.35 1723.99 225.15C1723.75 226.14 1723.48 227.23 1723.17 228.49L1722.7 230.35H1760.38H1787.7C1827.17 230.35 1869.43 230.35 1911.07 230.38C1913 230.38 1914.91 230.6 1916.94 230.84C1917.44 230.9 1917.96 230.96 1918.47 231.01V259.88H1602.93C1602.94 259.81 1602.95 259.74 1602.96 259.68C1603.17 258.3 1603.37 256.99 1603.71 255.73C1610.41 231.42 1617.25 206.7 1623.87 182.81C1627.23 170.66 1630.6 158.5 1633.96 146.34C1636.36 137.64 1638.71 129.04 1641.2 119.94C1642.27 116.04 1643.35 112.08 1644.45 108.04L1644.97 106.14H1643C1638.76 106.14 1634.6 106.19 1630.57 106.24C1626.59 106.29 1622.83 106.34 1619.05 106.34C1612.88 106.34 1607.86 106.21 1603.24 105.92C1602.7 105.89 1602.17 105.87 1601.67 105.87C1594.09 105.87 1591.56 109.73 1589.75 116.41C1579.82 153.04 1569.48 190.22 1559.48 226.18C1556.36 237.41 1553.23 248.65 1550.11 259.88H1438.18L1440.81 250.49C1463.05 171.02 1486.04 88.83 1508.62 7.98999C1509.7 4.12999 1510.29 2.56006 1514.1 2.56006M1514.14 1.08997C1509.07 1.08997 1508.25 3.92 1507.22 7.62C1483.59 92.22 1459.92 176.81 1436.25 261.41H1551.3C1564.66 213.24 1578.17 165.09 1591.24 116.83C1592.97 110.45 1595.16 107.4 1601.71 107.4C1602.18 107.4 1602.67 107.42 1603.19 107.45C1608.45 107.77 1613.72 107.87 1619.09 107.87C1626.82 107.87 1634.73 107.67 1643.04 107.67C1639.38 121.03 1635.99 133.5 1632.55 145.97C1622.47 182.43 1612.36 218.89 1602.3 255.36C1601.75 257.33 1601.56 259.39 1601.2 261.41H1920V229.68C1917.03 229.42 1914.07 228.92 1911.1 228.91C1869.97 228.88 1828.85 228.88 1787.72 228.88C1769.51 228.88 1751.3 228.88 1733.08 228.88H1724.64C1725.53 225.34 1726.03 223.12 1726.63 220.94C1738.54 178.06 1751.35 135.4 1762.03 92.22C1768 68.06 1759.3 54.23 1735.9 54.23C1735.26 54.23 1734.62 54.24 1733.96 54.26C1718.27 54.75 1702.56 54.9 1686.85 54.9C1663.77 54.9 1640.68 54.5799 1617.6 54.5699C1614.99 54.5699 1612.38 54.33 1609.2 54.17C1614.11 36.28 1618.75 19.35 1623.52 1.96997C1621.4 1.63997 1620.1 1.26001 1618.8 1.26001C1613.16 1.26001 1607.52 1.26001 1601.88 1.26001C1592.29 1.26001 1582.7 1.26001 1573.11 1.26001C1553.48 1.26001 1533.85 1.23999 1514.22 1.10999C1514.19 1.10999 1514.16 1.10999 1514.13 1.10999L1514.14 1.08997Z" fill="#DADADA"/>
<path d="M615.75 207.41C631.91 207.41 646.65 207.59 661.36 207.17C663.05 207.12 665.53 204.02 666.14 201.91C671.84 182.31 677.21 162.61 682.68 142.94C685.86 131.53 689.04 120.11 692.5 107.67C677.69 107.67 663.89 107.87 650.1 107.57C645.12 107.45 642.85 108.87 641.54 113.91C636.84 132.12 631.58 150.19 626.56 168.32C623.07 180.87 619.62 193.42 615.76 207.42M517.26 261.41C517.12 261.23 517.01 260.94 516.83 260.88C495.56 254.09 490.46 244.55 496.58 222.42C508.81 178.18 521.11 133.97 533.47 89.77C539.81 67.11 556.3 54.67 580.34 54.6C620.07 54.48 659.79 54.4499 699.52 54.6899C705.33 54.7199 707.93 53.2701 709.39 47.3101C712.76 33.5001 716.92 19.8799 721.23 6.31994C721.89 4.21994 724.98 1.44004 726.97 1.42004C762.53 1.13004 798.1 1.21999 833.67 1.24999C834.53 1.24999 835.38 1.61997 836.91 1.96997C831.7 20.77 826.6 39.29 821.44 57.78C802.91 124.31 784.35 190.85 765.84 257.38C765.48 258.67 765.53 260.06 765.39 261.39H517.28L517.26 261.41Z" stroke="#DADADA" stroke-width="1.5" stroke-miterlimit="10"/>
<path d="M400.33 55.9301H400.49C415.86 56.0501 432.35 56.1 453.97 56.1C462.88 56.1 471.82 56.1 480.81 56.08C489.26 56.08 497.75 56.0601 506.3 56.0601C505.86 57.7301 505.44 59.37 505.02 60.99C503.83 65.57 502.71 69.9 501.5 74.24C498.19 86.09 494.89 97.94 491.59 109.8C482.12 143.79 472.33 178.93 462.49 213.44C454.29 242.25 437.35 257.04 410.73 258.66C409.69 258.72 408.8 259.19 408.02 259.61C407.82 259.72 407.63 259.82 407.44 259.91H204.6C204.43 259.77 204.21 259.63 203.93 259.54C184.62 253.49 178.77 242.28 184.39 222.05C191.91 194.94 199.44 167.84 206.96 140.74L219.93 94.03C220.36 92.49 220.74 90.94 221.19 89.14C221.39 88.35 221.59 87.51 221.83 86.6L222.3 84.73H1.5V56.58H342.42L329.6 102.51C319.94 137.12 310.26 171.8 300.43 207.05L299.9 208.95H335.15C351.65 208.95 352.25 208.49 356.74 192.41L356.76 192.35C360.07 180.5 363.38 168.65 366.69 156.8C375.4 125.64 384.41 93.42 393.14 61.7C394.39 57.16 395.94 55.91 400.34 55.91M400.33 54.4301C394.96 54.4301 393.03 56.4099 391.68 61.3199C379.69 104.9 367.45 148.42 355.3 191.96C352.42 202.287 345.7 207.453 335.14 207.46H301.86C316.22 155.97 330.25 105.72 344.38 55.09H0V86.24H220.36C219.6 89.25 219.08 91.46 218.48 93.64C206.63 136.32 194.78 178.99 182.94 221.66C177.11 242.66 183.41 254.69 203.48 260.98C203.68 261.04 203.83 261.27 204.01 261.41H407.76C408.77 260.98 409.77 260.23 410.81 260.17C440.53 258.36 456.33 240.53 463.93 213.86C477.14 167.51 489.98 121.06 502.94 74.65C504.75 68.17 506.37 61.6499 508.24 54.5699C489.93 54.5699 471.88 54.6 453.97 54.6C436.06 54.6 418.28 54.5701 400.5 54.4301C400.44 54.4301 400.38 54.4301 400.33 54.4301Z" fill="#DADADA"/>
<path d="M937.11 207.42C953.16 207.42 967.65 207.51 982.12 207.28C983.67 207.26 986.13 205.59 986.58 204.2C989.3 195.54 991.57 186.74 994.22 177.14C978.49 177.14 963.77 177.07 949.05 177.26C947.66 177.28 945.43 178.68 945.04 179.89C942.3 188.57 939.95 197.36 937.1 207.42M840.22 261.41C839.19 260.96 838.2 260.31 837.12 260.07C820.34 256.39 812.83 247.24 816.32 230.45C820.61 209.83 825.88 189.25 832.96 169.44C840.46 148.44 858.38 140.75 879.69 140.63C918.94 140.42 958.19 140.46 997.44 140.7C1002.78 140.73 1005.31 139.18 1006.52 133.97C1008.54 125.33 1011.17 116.81 1013.89 107.01H977.32C965.25 107.01 965.13 106.98 961.6 118.41C960.53 121.9 959.2 123.69 955.06 123.66C920.2 123.49 885.33 123.57 850.47 123.53C849.11 123.53 847.77 123.21 845.79 122.95C851.2 103.24 856.44 83.8 861.91 64.42C865.31 52.36 862.56 54.3499 875.62 54.3399C951.35 54.2499 1027.08 54.3 1102.81 54.3C1129.45 54.3 1139.82 67.6799 1132.67 93.8299C1121.11 136.09 1109.12 178.23 1097.27 220.41C1093.43 234.09 1089.47 247.75 1085.57 261.41H840.23H840.22Z" stroke="#DADADA" stroke-width="1.5" stroke-miterlimit="10"/>
<path d="M1262.72 56.05C1275.3 56.05 1287.88 56.0501 1300.46 56.0601C1313.04 56.0601 1325.63 56.0699 1338.21 56.0699H1446.89C1445.78 60.0899 1444.67 64.05 1443.58 67.98C1440.18 80.19 1436.96 91.73 1433.88 103.47C1433.27 105.81 1432.25 106.21 1430.21 106.21C1429.83 106.21 1429.45 106.2 1429.06 106.18C1428.63 106.17 1428.2 106.15 1427.77 106.15C1384.35 106.17 1340.92 106.17 1297.51 106.17C1295.48 106.17 1293.46 106.15 1291.43 106.13C1289.39 106.11 1287.35 106.09 1285.32 106.09C1281.37 106.09 1278.18 106.17 1275.26 106.36C1272.87 106.52 1268.78 108.62 1268.03 111.21C1259.78 139.91 1251.7 169.17 1243.88 197.46L1242.07 204C1241.86 204.73 1242 205.4 1242.16 206.18C1242.24 206.56 1242.33 207 1242.41 207.54L1242.6 208.83H1404.41C1401.39 220.13 1398.47 231.05 1395.59 241.82L1390.75 259.92H1145.72C1145.36 259.6 1144.85 259.2 1144.12 259.16C1137.07 258.83 1131.32 255.84 1127.51 250.49C1122.68 243.71 1121.49 233.88 1124.34 224.2C1134.03 191.24 1143.4 157.6 1152.46 125.07C1155.62 113.72 1158.78 102.38 1161.95 91.04C1168.52 67.6 1183.56 56.17 1207.95 56.12C1224.01 56.08 1241.41 56.0601 1262.72 56.0601M1262.72 54.55C1244.46 54.55 1226.2 54.56 1207.95 54.61C1182.81 54.67 1167.21 66.71 1160.51 90.63C1148.07 135.04 1135.92 179.53 1122.9 223.78C1117.72 241.39 1125.4 259.8 1144.05 260.66C1144.43 260.68 1144.79 261.16 1145.17 261.42H1391.9C1396.62 243.75 1401.34 226.09 1406.36 207.33H1243.89C1243.66 205.74 1243.34 205.01 1243.51 204.42C1252.07 173.46 1260.6 142.5 1269.47 111.62C1269.97 109.89 1273.26 107.99 1275.36 107.85C1278.67 107.64 1282 107.59 1285.32 107.59C1289.38 107.59 1293.45 107.67 1297.52 107.67C1340.94 107.67 1384.37 107.67 1427.78 107.65C1428.59 107.65 1429.42 107.71 1430.22 107.71C1432.45 107.71 1434.44 107.26 1435.34 103.85C1439.58 87.69 1444.16 71.6099 1448.88 54.5699H1338.23C1313.06 54.5699 1287.9 54.54 1262.74 54.54L1262.72 54.55Z" fill="#DADADA"/>
</g>
</svg>
